<svg width="67" height="96" viewBox="0 0 67 96" fill="none" xmlns="http://www.w3.org/2000/svg">
<path fill-rule="evenodd" clip-rule="evenodd" d="M33.5 10.625C19.9665 10.625 10.5909 20.3425 10.5909 32.1875C10.5909 37.8455 13.0193 41.5312 16.2265 45.4355L17.4522 46.8903C18.7294 48.4083 20.144 50.0872 21.3066 51.7662C22.9332 54.1295 24.3822 56.9183 24.8633 60.3338C24.9779 61.4433 24.6599 62.5543 23.976 63.4334C23.292 64.3125 22.2954 64.8913 21.1954 65.0483C20.0954 65.2054 18.9776 64.9284 18.0767 64.2755C17.1758 63.6226 16.5619 62.6446 16.364 61.547C16.1349 59.9255 15.4305 58.4017 14.2449 56.6767C13.2758 55.3223 12.2398 54.0173 11.1407 52.7668C10.6596 52.1918 10.1499 51.588 9.60582 50.9267C6.01482 46.5625 2 40.9045 2 32.1875C2 15.2825 15.5335 2 33.5 2C51.4665 2 65 15.2825 65 32.1875C65 40.9045 60.9852 46.5625 57.3942 50.9267C56.8501 51.588 56.3404 52.1918 55.8593 52.761C54.6737 54.1698 53.6657 55.3657 52.7608 56.6767C51.5695 58.4017 50.8708 59.9255 50.6417 61.547C50.562 62.1077 50.3731 62.6471 50.0857 63.1344C49.7983 63.6218 49.4182 64.0475 48.9669 64.3874C48.5157 64.7272 48.0022 64.9745 47.4557 65.1151C46.9093 65.2557 46.3406 65.2869 45.7821 65.2069C45.2237 65.1268 44.6864 64.9371 44.201 64.6486C43.7156 64.3601 43.2915 63.9785 42.953 63.5254C42.6145 63.0724 42.3682 62.5568 42.2281 62.0082C42.0881 61.4596 42.057 60.8887 42.1367 60.328C42.6178 56.9183 44.0668 54.1295 45.6934 51.7662C46.856 50.0872 48.2706 48.4083 49.5478 46.8903C49.9774 46.3843 50.3897 45.8955 50.7677 45.4355C53.9807 41.5312 56.4091 37.8455 56.4091 32.1875C56.4091 20.3425 47.0335 10.625 33.5 10.625ZM22.0455 89.6875C22.0455 88.5438 22.498 87.4469 23.3036 86.6381C24.1091 85.8294 25.2017 85.375 26.3409 85.375H40.6591C41.7983 85.375 42.8909 85.8294 43.6964 86.6381C44.502 87.4469 44.9545 88.5438 44.9545 89.6875C44.9545 90.8312 44.502 91.9281 43.6964 92.7369C42.8909 93.5456 41.7983 94 40.6591 94H26.3409C25.2017 94 24.1091 93.5456 23.3036 92.7369C22.498 91.9281 22.0455 90.8312 22.0455 89.6875ZM20.6136 71C19.4744 71 18.3818 71.4544 17.5763 72.2631C16.7707 73.0719 16.3182 74.1688 16.3182 75.3125C16.3182 76.4562 16.7707 77.5531 17.5763 78.3619C18.3818 79.1706 19.4744 79.625 20.6136 79.625H46.3864C47.5256 79.625 48.6182 79.1706 49.4237 78.3619C50.2293 77.5531 50.6818 76.4562 50.6818 75.3125C50.6818 74.1688 50.2293 73.0719 49.4237 72.2631C48.6182 71.4544 47.5256 71 46.3864 71H20.6136Z" fill="#C7DF9E" stroke="" stroke-width="4"/>
</svg>
