<svg width="83" height="83" viewBox="0 0 83 83" fill="none" xmlns="http://www.w3.org/2000/svg">
<path d="M80.9489 30.0165C80.9861 30.1886 81.0182 30.3674 80.9815 30.5396C80.9006 30.9187 80.5698 30.7717 80.2758 30.6489C78.1268 29.7509 75.9705 28.8719 73.8437 27.9269C73.172 27.6335 72.9098 27.7626 72.577 28.4097C64.3479 44.4538 53.0551 57.8537 37.9402 67.8934C28.1621 74.4154 17.0799 78.7459 5.45837 80.586C4.49215 80.7416 3.52151 80.8795 2.54939 80.9984V80.9984C2.27175 81.0288 2.16288 80.4838 2.42125 80.3777V80.3777C21.4217 72.6432 35.5203 59.3944 45.8423 41.9329C49.7161 35.3797 52.6501 28.4009 54.9213 21.1448C55.235 20.1455 55.2306 20.1397 54.2497 19.7273C52.5544 19.0171 50.8546 18.3157 49.1652 17.5938C49.1626 17.5927 49.16 17.5916 49.1574 17.5904C48.8171 17.4399 48.7717 16.861 49.0916 16.6708V16.6708C57.1778 11.855 65.267 7.04497 73.3591 2.24084C74.0278 1.84465 74.1618 1.90335 74.3474 2.67224C76.5499 11.7875 78.7504 20.9022 80.9489 30.0165V30.0165Z" stroke="#C7DF9E" stroke-width="4"/>
</svg>
