<svg xmlns="http://www.w3.org/2000/svg" width="104" height="104" viewBox="0 0 104 104"><g><g><g/><g><path fill="#c7df9e" d="M83.3 41.775v.03c8.456 3.583 12.943 8.209 12.69 13.009-.215 4.241-4.01 7.912-10.92 10.577a1.67 1.67 0 0 1-2.092-.967 1.652 1.652 0 0 1 .888-2.121c5.438-2.102 8.654-4.897 8.796-7.66.326-6.406-15.792-14.415-39.456-15.658-2.208-.128-4.331-.171-6.286-.171h-1.433a117.946 117.946 0 0 0-4.43 6.306c-1.446 2.199-2.749 4.415-3.98 6.6a97.223 97.223 0 0 0 3.27 6.97C51.097 79.725 64.99 91.18 70.769 88.232c5.468-2.779 4.772-19.342-4.97-39.57a1.658 1.658 0 0 1 .794-2.218 1.676 1.676 0 0 1 2.208.778c4.7 9.718 7.733 19.455 8.537 27.454.881 8.535-.921 14.404-5.068 16.52-1.077.533-2.268.804-3.543.804-3.836 0-8.51-2.427-13.538-7.083-6.303-5.859-12.632-14.632-17.801-24.732-.794-1.582-1.561-3.161-2.282-4.743-2.903 5.742-5.043 11.317-6.188 16.325-1.702 7.348-1.093 12.568 1.656 14.358 2.605 1.696 7.32.368 12.912-3.621a1.663 1.663 0 0 1 2.605 1.62 1.653 1.653 0 0 1-.674 1.075c-4.647 3.299-8.753 4.965-12.138 4.965-1.7 0-3.214-.426-4.516-1.27-4.062-2.623-5.155-8.972-3.113-17.875 1.37-5.967 4.048-12.684 7.743-19.499a98.33 98.33 0 0 1-3.806-11.157C18.75 42.49 12.508 46.498 12.323 50.407c-.169 2.776 2.662 5.81 7.915 8.505a1.648 1.648 0 0 1 .907 1.609c-.018.217-.08.429-.181.623a1.649 1.649 0 0 1-1.616.898 1.658 1.658 0 0 1-.625-.18c-6.582-3.386-9.94-7.406-9.712-11.64.326-5.964 7.899-10.72 19.797-13.09-.484-2.004-.81-3.965-1.063-5.84-1.077-9.07.65-15.279 4.97-17.478a8.116 8.116 0 0 1 2.915-.791c3.445-.252 7.649 1.595 12.225 5.363a1.642 1.642 0 0 1 .522 1.761 1.64 1.64 0 0 1-.313.565c-.582.72-1.628.791-2.335.214-3.812-3.158-7.296-4.78-9.83-4.585-.622.06-1.163.184-1.656.452-3.57 1.807-4.491 9.312-2.153 19.781a94.94 94.94 0 0 1 11.71-1.03c9.618-12.359 20.097-20.387 27.517-20.669 1.857-.073 3.53.355 4.903 1.257 3.836 2.495 5.04 8.156 3.412 16.393a1.655 1.655 0 0 1-1.317 1.302 1.67 1.67 0 0 1-.651-.005c-.865-.17-1.444-1.059-1.303-1.961 1.303-6.574.596-11.3-1.968-12.966-.794-.507-1.784-.748-2.948-.704-5.933.222-14.94 7.08-23.337 17.294 1.752-.002 3.504.05 5.253.155 11.357.593 21.991 2.765 29.91 6.12zm-45.035 1.47v.04a90.085 90.085 0 0 1 2.972-4.373 88.603 88.603 0 0 0-8.367.874 84.895 84.895 0 0 0 2.619 7.999 105.37 105.37 0 0 1 2.762-4.5zm14.218 4.288c-6.643 0-6.643 9.932 0 9.932"/></g></g></g></svg>