<svg xmlns="http://www.w3.org/2000/svg" width="40" height="40" viewBox="0 0 40 40"><g><g><g/><g><path fill="#f3f3f3" d="M40 20c0 11.046-8.954 20-20 20S0 31.046 0 20 8.954 0 20 0s20 8.954 20 20z"/></g><g><g><path fill="#fff" d="M27.8 18.545a9.37 9.37 0 0 1 .157 1.722c0 4.687-3.136 8.02-7.874 8.02a8.202 8.202 0 1 1 0-16.407c2.215 0 4.066.815 5.486 2.138l-2.312 2.313v-.006c-.861-.82-1.954-1.24-3.174-1.24-2.706 0-4.906 2.286-4.906 4.993 0 2.707 2.2 4.999 4.906 4.999 2.456 0 4.128-1.404 4.471-3.333h-4.47v-3.199H27.8z"/></g></g></g></g></svg>