<svg xmlns="http://www.w3.org/2000/svg" width="40" height="40" viewBox="0 0 40 40"><g><g><g/><g><path fill="#f3f3f3" d="M40 20c0 11.046-8.954 20-20 20S0 31.046 0 20 8.954 0 20 0s20 8.954 20 20z"/></g><g><g><path fill="#fff" d="M29.542 14.96c.138-.455 0-.79-.663-.79h-2.187c-.557 0-.814.29-.953.608 0 0-1.112 2.664-2.688 4.394-.51.501-.742.66-1.02.66-.14 0-.349-.159-.349-.614V14.96c0-.547-.153-.79-.616-.79h-3.44c-.348 0-.557.253-.557.494 0 .518.788.638.87 2.094v3.165c0 .695-.128.82-.407.82-.741 0-2.545-2.675-3.616-5.737-.208-.596-.418-.836-.977-.836H10.75c-.625 0-.75.29-.75.608 0 .569.742 3.392 3.454 7.126 1.808 2.55 4.354 3.933 6.673 3.933 1.391 0 1.563-.307 1.563-.836v-1.928c0-.614.132-.736.572-.736.325 0 .881.16 2.18 1.389 1.483 1.457 1.727 2.11 2.562 2.11h2.188c.625 0 .938-.306.758-.913-.198-.603-.907-1.479-1.846-2.518-.51-.592-1.275-1.23-1.507-1.548-.325-.41-.232-.592 0-.956 0 0 2.666-3.688 2.944-4.941z"/></g></g></g></g></svg>