<svg xmlns="http://www.w3.org/2000/svg" width="43" height="42" viewBox="0 0 43 42"><defs><mask id="nlsdb" width="2" height="2" x="-1" y="-1"><path fill="#fff" d="M1 1h40.14v40H1z"/><path d="M35.344 6.838c3.718 3.676 5.797 8.648 5.797 13.946 0 10.919-8.97 19.892-20.016 19.892-3.281 0-6.563-.757-9.516-2.379L1 41l2.844-10.27c-1.64-3.027-2.625-6.379-2.625-9.838C1.109 9.972 10.079 1 21.234 1c5.25 0 10.391 2.054 14.11 5.838zm-14.11 30.486c3.063 0 6.125-.864 8.641-2.486 7.875-4.757 10.172-14.811 5.36-22.595C30.421 4.46 20.25 2.19 12.374 6.946 4.5 11.703 2.203 21.866 7.015 29.54l.438.648-1.64 6.163 6.343-1.622.656.324c2.516 1.514 5.47 2.27 8.422 2.27zm9.625-12c.22.109.329.217.329.217v.757c-.11.54-.22 1.08-.438 1.513-.11.216-.328.432-.547.649-.219.216-.437.324-.656.54l-.219.217c-.219.216-.437.216-.765.432-.438.216-1.094.432-1.641.432h-1.094c-.328-.108-.765-.108-1.094-.216-2.953-.757-5.578-2.162-7.875-4.108-.218-.324-.547-.54-.875-.865l-.437-.432a18.018 18.018 0 0 1-4.047-5.514l-.11-.324c-.328-.757-.546-1.622-.546-2.487 0-1.189.437-2.378 1.203-3.351.219-.216.328-.432.547-.649.219-.108.437-.324.656-.432l.11-.108c.218 0 .437-.108.656-.108h1.203c.328.108.547.216.766.54.328.649 1.64 3.568 1.75 4.108.109.325 0 .757-.22 1.081-.218.217-.327.54-.546.757-.328.324-.766.865-.766.865-.11.108-.11.324-.11.54.11.217.11.325.22.433l.109.216c.547.973 1.312 1.838 2.078 2.595.219.216.547.432.766.649.875.864 1.968 1.513 3.172 2.054l.546.216c.11.108.329.216.438.216h.11a.603.603 0 0 0 .546-.324c1.532-1.73 1.64-1.838 1.64-1.838.22-.108.438-.216.766-.216.11 0 .22.108.329.108a78.861 78.861 0 0 0 2.843 1.297z"/></mask><filter id="nlsda" width="62.14" height="62" x="-10" y="-10" filterUnits="userSpaceOnUse"><feOffset in="SourceGraphic" result="FeOffset1074Out"/><feGaussianBlur in="FeOffset1074Out" result="FeGaussianBlur1075Out" stdDeviation="0.4 0.4"/></filter></defs><g><g><g><path fill="#f3f3f3" d="M12.03 36.752l.682.338c2.844 1.686 6.028 2.473 9.213 2.473 10.008 0 18.197-8.094 18.197-17.987 0-4.721-1.934-9.33-5.346-12.703A18.173 18.173 0 0 0 21.925 3.59c-10.009 0-18.198 8.094-18.084 18.099 0 3.372 1.024 6.632 2.73 9.443l.455.674-1.82 6.633z"/></g><g><g filter="url(#nlsda)"><path fill="none" d="M35.344 6.838c3.718 3.676 5.797 8.648 5.797 13.946 0 10.919-8.97 19.892-20.016 19.892-3.281 0-6.563-.757-9.516-2.379L1 41l2.844-10.27c-1.64-3.027-2.625-6.379-2.625-9.838C1.109 9.972 10.079 1 21.234 1c5.25 0 10.391 2.054 14.11 5.838zm-14.11 30.486c3.063 0 6.125-.864 8.641-2.486 7.875-4.757 10.172-14.811 5.36-22.595C30.421 4.46 20.25 2.19 12.374 6.946 4.5 11.703 2.203 21.866 7.015 29.54l.438.648-1.64 6.163 6.343-1.622.656.324c2.516 1.514 5.47 2.27 8.422 2.27zm9.625-12c.22.109.329.217.329.217v.757c-.11.54-.22 1.08-.438 1.513-.11.216-.328.432-.547.649-.219.216-.437.324-.656.54l-.219.217c-.219.216-.437.216-.765.432-.438.216-1.094.432-1.641.432h-1.094c-.328-.108-.765-.108-1.094-.216-2.953-.757-5.578-2.162-7.875-4.108-.218-.324-.547-.54-.875-.865l-.437-.432a18.018 18.018 0 0 1-4.047-5.514l-.11-.324c-.328-.757-.546-1.622-.546-2.487 0-1.189.437-2.378 1.203-3.351.219-.216.328-.432.547-.649.219-.108.437-.324.656-.432l.11-.108c.218 0 .437-.108.656-.108h1.203c.328.108.547.216.766.54.328.649 1.64 3.568 1.75 4.108.109.325 0 .757-.22 1.081-.218.217-.327.54-.546.757-.328.324-.766.865-.766.865-.11.108-.11.324-.11.54.11.217.11.325.22.433l.109.216c.547.973 1.312 1.838 2.078 2.595.219.216.547.432.766.649.875.864 1.968 1.513 3.172 2.054l.546.216c.11.108.329.216.438.216h.11a.603.603 0 0 0 .546-.324c1.532-1.73 1.64-1.838 1.64-1.838.22-.108.438-.216.766-.216.11 0 .22.108.329.108a78.861 78.861 0 0 0 2.843 1.297z" mask="url(&quot;#nlsdb&quot;)"/><path fill-opacity=".1" d="M35.344 6.838c3.718 3.676 5.797 8.648 5.797 13.946 0 10.919-8.97 19.892-20.016 19.892-3.281 0-6.563-.757-9.516-2.379L1 41l2.844-10.27c-1.64-3.027-2.625-6.379-2.625-9.838C1.109 9.972 10.079 1 21.234 1c5.25 0 10.391 2.054 14.11 5.838zm-14.11 30.486c3.063 0 6.125-.864 8.641-2.486 7.875-4.757 10.172-14.811 5.36-22.595C30.421 4.46 20.25 2.19 12.374 6.946 4.5 11.703 2.203 21.866 7.015 29.54l.438.648-1.64 6.163 6.343-1.622.656.324c2.516 1.514 5.47 2.27 8.422 2.27zm9.625-12c.22.109.329.217.329.217v.757c-.11.54-.22 1.08-.438 1.513-.11.216-.328.432-.547.649-.219.216-.437.324-.656.54l-.219.217c-.219.216-.437.216-.765.432-.438.216-1.094.432-1.641.432h-1.094c-.328-.108-.765-.108-1.094-.216-2.953-.757-5.578-2.162-7.875-4.108-.218-.324-.547-.54-.875-.865l-.437-.432a18.018 18.018 0 0 1-4.047-5.514l-.11-.324c-.328-.757-.546-1.622-.546-2.487 0-1.189.437-2.378 1.203-3.351.219-.216.328-.432.547-.649.219-.108.437-.324.656-.432l.11-.108c.218 0 .437-.108.656-.108h1.203c.328.108.547.216.766.54.328.649 1.64 3.568 1.75 4.108.109.325 0 .757-.22 1.081-.218.217-.327.54-.546.757-.328.324-.766.865-.766.865-.11.108-.11.324-.11.54.11.217.11.325.22.433l.109.216c.547.973 1.312 1.838 2.078 2.595.219.216.547.432.766.649.875.864 1.968 1.513 3.172 2.054l.546.216c.11.108.329.216.438.216h.11a.603.603 0 0 0 .546-.324c1.532-1.73 1.64-1.838 1.64-1.838.22-.108.438-.216.766-.216.11 0 .22.108.329.108a78.861 78.861 0 0 0 2.843 1.297z"/></g><path fill="#fff" d="M35.344 6.838c3.718 3.676 5.797 8.648 5.797 13.946 0 10.919-8.97 19.892-20.016 19.892-3.281 0-6.563-.757-9.516-2.379L1 41l2.844-10.27c-1.64-3.027-2.625-6.379-2.625-9.838C1.109 9.972 10.079 1 21.234 1c5.25 0 10.391 2.054 14.11 5.838zm-14.11 30.486c3.063 0 6.125-.864 8.641-2.486 7.875-4.757 10.172-14.811 5.36-22.595C30.421 4.46 20.25 2.19 12.374 6.946 4.5 11.703 2.203 21.866 7.015 29.54l.438.648-1.64 6.163 6.343-1.622.656.324c2.516 1.514 5.47 2.27 8.422 2.27zm9.625-12c.22.109.329.217.329.217v.757c-.11.54-.22 1.08-.438 1.513-.11.216-.328.432-.547.649-.219.216-.437.324-.656.54l-.219.217c-.219.216-.437.216-.765.432-.438.216-1.094.432-1.641.432h-1.094c-.328-.108-.765-.108-1.094-.216-2.953-.757-5.578-2.162-7.875-4.108-.218-.324-.547-.54-.875-.865l-.437-.432a18.018 18.018 0 0 1-4.047-5.514l-.11-.324c-.328-.757-.546-1.622-.546-2.487 0-1.189.437-2.378 1.203-3.351.219-.216.328-.432.547-.649.219-.108.437-.324.656-.432l.11-.108c.218 0 .437-.108.656-.108h1.203c.328.108.547.216.766.54.328.649 1.64 3.568 1.75 4.108.109.325 0 .757-.22 1.081-.218.217-.327.54-.546.757-.328.324-.766.865-.766.865-.11.108-.11.324-.11.54.11.217.11.325.22.433l.109.216c.547.973 1.312 1.838 2.078 2.595.219.216.547.432.766.649.875.864 1.968 1.513 3.172 2.054l.546.216c.11.108.329.216.438.216h.11a.603.603 0 0 0 .546-.324c1.532-1.73 1.64-1.838 1.64-1.838.22-.108.438-.216.766-.216.11 0 .22.108.329.108a78.861 78.861 0 0 0 2.843 1.297z"/></g></g></g></svg>