<svg xmlns="http://www.w3.org/2000/svg" width="24" height="24" viewBox="0 0 24 24"><defs><mask id="oqczb" width="2" height="2" x="-1" y="-1"><path fill="#fff" d="M0 0h23.08v23H0z"/><path d="M19.748 3.357a11.215 11.215 0 0 1 3.333 8.019c0 6.278-5.157 11.438-11.51 11.438-1.886 0-3.773-.436-5.47-1.368L0 23l1.635-5.905c-.943-1.74-1.51-3.668-1.51-5.657C.064 5.159 5.22 0 11.636 0c3.018 0 5.974 1.181 8.113 3.357zm-8.113 17.53c1.76 0 3.522-.498 4.968-1.43 4.528-2.735 5.849-8.517 3.082-12.992C16.918 1.989 11.069.684 6.54 3.419 2.013 6.154.69 11.997 3.459 16.41l.252.373-.944 3.543 3.648-.932.377.186c1.447.87 3.145 1.306 4.843 1.306zm5.534-6.9c.126.062.189.124.189.124v.435c-.063.31-.126.622-.252.87-.063.125-.188.249-.314.373-.126.125-.252.187-.377.311l-.126.124c-.126.125-.252.125-.44.25-.252.123-.63.248-.944.248h-.629c-.189-.063-.44-.063-.629-.125-1.698-.435-3.207-1.243-4.528-2.362-.126-.186-.314-.31-.503-.497l-.251-.249a10.36 10.36 0 0 1-2.327-3.17l-.063-.187a3.65 3.65 0 0 1-.315-1.43c0-.683.252-1.367.692-1.926.126-.125.189-.249.314-.373.126-.062.252-.187.378-.249l.063-.062c.126 0 .251-.062.377-.062h.692c.189.062.314.124.44.31.189.374.943 2.052 1.006 2.363.063.186 0 .435-.126.621-.125.125-.188.311-.314.436-.189.186-.44.497-.44.497-.063.062-.063.186-.063.31.063.125.063.187.126.25l.063.124c.314.56.754 1.056 1.194 1.492.126.124.315.248.44.372.504.498 1.133.87 1.824 1.182l.315.124a.48.48 0 0 0 .252.124h.062a.347.347 0 0 0 .315-.186c.88-.995.943-1.057.943-1.057.126-.062.252-.124.44-.124.063 0 .126.062.19.062.628.31 1.634.746 1.634.746z"/></mask><filter id="oqcza" width="47.08" height="47" x="-12" y="-12" filterUnits="userSpaceOnUse"><feOffset in="SourceGraphic" result="FeOffset1034Out"/><feGaussianBlur in="FeOffset1034Out" result="FeGaussianBlur1035Out" stdDeviation="0.8 0.8"/></filter></defs><g><g><g/><g><path fill="#00e676" d="M6.34 20.558l.392.194c1.635.97 3.466 1.422 5.297 1.422 5.755 0 10.463-4.654 10.463-10.342 0-2.715-1.112-5.365-3.074-7.304a10.45 10.45 0 0 0-7.39-3.038c-5.754 0-10.463 4.654-10.397 10.407 0 1.939.588 3.813 1.57 5.43l.26.387-1.046 3.814z"/></g><g><g filter="url(#oqcza)"><path fill="none" d="M19.748 3.357a11.215 11.215 0 0 1 3.333 8.019c0 6.278-5.157 11.438-11.51 11.438-1.886 0-3.773-.436-5.47-1.368L0 23l1.635-5.905c-.943-1.74-1.51-3.668-1.51-5.657C.064 5.159 5.22 0 11.636 0c3.018 0 5.974 1.181 8.113 3.357zm-8.113 17.53c1.76 0 3.522-.498 4.968-1.43 4.528-2.735 5.849-8.517 3.082-12.992C16.918 1.989 11.069.684 6.54 3.419 2.013 6.154.69 11.997 3.459 16.41l.252.373-.944 3.543 3.648-.932.377.186c1.447.87 3.145 1.306 4.843 1.306zm5.534-6.9c.126.062.189.124.189.124v.435c-.063.31-.126.622-.252.87-.063.125-.188.249-.314.373-.126.125-.252.187-.377.311l-.126.124c-.126.125-.252.125-.44.25-.252.123-.63.248-.944.248h-.629c-.189-.063-.44-.063-.629-.125-1.698-.435-3.207-1.243-4.528-2.362-.126-.186-.314-.31-.503-.497l-.251-.249a10.36 10.36 0 0 1-2.327-3.17l-.063-.187a3.65 3.65 0 0 1-.315-1.43c0-.683.252-1.367.692-1.926.126-.125.189-.249.314-.373.126-.062.252-.187.378-.249l.063-.062c.126 0 .251-.062.377-.062h.692c.189.062.314.124.44.31.189.374.943 2.052 1.006 2.363.063.186 0 .435-.126.621-.125.125-.188.311-.314.436-.189.186-.44.497-.44.497-.063.062-.063.186-.063.31.063.125.063.187.126.25l.063.124c.314.56.754 1.056 1.194 1.492.126.124.315.248.44.372.504.498 1.133.87 1.824 1.182l.315.124a.48.48 0 0 0 .252.124h.062a.347.347 0 0 0 .315-.186c.88-.995.943-1.057.943-1.057.126-.062.252-.124.44-.124.063 0 .126.062.19.062.628.31 1.634.746 1.634.746z" mask="url(&quot;#oqczb&quot;)"/><path fill-opacity=".15" d="M19.748 3.357a11.215 11.215 0 0 1 3.333 8.019c0 6.278-5.157 11.438-11.51 11.438-1.886 0-3.773-.436-5.47-1.368L0 23l1.635-5.905c-.943-1.74-1.51-3.668-1.51-5.657C.064 5.159 5.22 0 11.636 0c3.018 0 5.974 1.181 8.113 3.357zm-8.113 17.53c1.76 0 3.522-.498 4.968-1.43 4.528-2.735 5.849-8.517 3.082-12.992C16.918 1.989 11.069.684 6.54 3.419 2.013 6.154.69 11.997 3.459 16.41l.252.373-.944 3.543 3.648-.932.377.186c1.447.87 3.145 1.306 4.843 1.306zm5.534-6.9c.126.062.189.124.189.124v.435c-.063.31-.126.622-.252.87-.063.125-.188.249-.314.373-.126.125-.252.187-.377.311l-.126.124c-.126.125-.252.125-.44.25-.252.123-.63.248-.944.248h-.629c-.189-.063-.44-.063-.629-.125-1.698-.435-3.207-1.243-4.528-2.362-.126-.186-.314-.31-.503-.497l-.251-.249a10.36 10.36 0 0 1-2.327-3.17l-.063-.187a3.65 3.65 0 0 1-.315-1.43c0-.683.252-1.367.692-1.926.126-.125.189-.249.314-.373.126-.062.252-.187.378-.249l.063-.062c.126 0 .251-.062.377-.062h.692c.189.062.314.124.44.31.189.374.943 2.052 1.006 2.363.063.186 0 .435-.126.621-.125.125-.188.311-.314.436-.189.186-.44.497-.44.497-.063.062-.063.186-.063.31.063.125.063.187.126.25l.063.124c.314.56.754 1.056 1.194 1.492.126.124.315.248.44.372.504.498 1.133.87 1.824 1.182l.315.124a.48.48 0 0 0 .252.124h.062a.347.347 0 0 0 .315-.186c.88-.995.943-1.057.943-1.057.126-.062.252-.124.44-.124.063 0 .126.062.19.062.628.31 1.634.746 1.634.746z"/></g><path fill="#fff" d="M19.748 3.357a11.215 11.215 0 0 1 3.333 8.019c0 6.278-5.157 11.438-11.51 11.438-1.886 0-3.773-.436-5.47-1.368L0 23l1.635-5.905c-.943-1.74-1.51-3.668-1.51-5.657C.064 5.159 5.22 0 11.636 0c3.018 0 5.974 1.181 8.113 3.357zm-8.113 17.53c1.76 0 3.522-.498 4.968-1.43 4.528-2.735 5.849-8.517 3.082-12.992C16.918 1.989 11.069.684 6.54 3.419 2.013 6.154.69 11.997 3.459 16.41l.252.373-.944 3.543 3.648-.932.377.186c1.447.87 3.145 1.306 4.843 1.306zm5.534-6.9c.126.062.189.124.189.124v.435c-.063.31-.126.622-.252.87-.063.125-.188.249-.314.373-.126.125-.252.187-.377.311l-.126.124c-.126.125-.252.125-.44.25-.252.123-.63.248-.944.248h-.629c-.189-.063-.44-.063-.629-.125-1.698-.435-3.207-1.243-4.528-2.362-.126-.186-.314-.31-.503-.497l-.251-.249a10.36 10.36 0 0 1-2.327-3.17l-.063-.187a3.65 3.65 0 0 1-.315-1.43c0-.683.252-1.367.692-1.926.126-.125.189-.249.314-.373.126-.062.252-.187.378-.249l.063-.062c.126 0 .251-.062.377-.062h.692c.189.062.314.124.44.31.189.374.943 2.052 1.006 2.363.063.186 0 .435-.126.621-.125.125-.188.311-.314.436-.189.186-.44.497-.44.497-.063.062-.063.186-.063.31.063.125.063.187.126.25l.063.124c.314.56.754 1.056 1.194 1.492.126.124.315.248.44.372.504.498 1.133.87 1.824 1.182l.315.124a.48.48 0 0 0 .252.124h.062a.347.347 0 0 0 .315-.186c.88-.995.943-1.057.943-1.057.126-.062.252-.124.44-.124.063 0 .126.062.19.062.628.31 1.634.746 1.634.746z"/></g></g></g></svg>