<svg xmlns="http://www.w3.org/2000/svg" width="14" height="25" viewBox="0 0 14 25"><g><g><path fill="#363431" d="M12.669 12.705c0 .39-.135.767-.384 1.067l-8.333 10a1.669 1.669 0 0 1-2.567-2.133l7.467-8.934-7.2-8.933a1.667 1.667 0 0 1 .25-2.35 1.667 1.667 0 0 1 2.433.233l8.05 10c.21.309.31.679.284 1.05z"/><path fill="none" stroke="#fff" stroke-miterlimit="20" d="M12.669 12.705c0 .39-.135.767-.384 1.067l-8.333 10a1.669 1.669 0 0 1-2.567-2.133l7.467-8.934v0l-7.2-8.933a1.667 1.667 0 0 1 .25-2.35 1.667 1.667 0 0 1 2.433.233l8.05 10c.21.309.31.679.284 1.05z"/></g></g></svg>