<svg xmlns="http://www.w3.org/2000/svg" width="14" height="25" viewBox="0 0 14 25"><g><g><path fill="#363431" d="M1.004 12.705c0 .39.135.767.383 1.067l8.334 10a1.669 1.669 0 0 0 2.566-2.133l-7.466-8.934 7.2-8.933a1.666 1.666 0 0 0-.25-2.35 1.667 1.667 0 0 0-2.434.233l-8.05 10c-.209.309-.309.679-.283 1.05z"/><path fill="none" stroke="#fff" stroke-miterlimit="20" d="M1.004 12.705c0 .39.135.767.383 1.067l8.334 10a1.669 1.669 0 0 0 2.566-2.133l-7.466-8.934v0l7.2-8.933a1.666 1.666 0 0 0-.25-2.35 1.667 1.667 0 0 0-2.434.233l-8.05 10c-.209.309-.309.679-.283 1.05z"/></g></g></svg>